<svg width="195" height="416" viewBox="0 0 195 416" fill="none" xmlns="http://www.w3.org/2000/svg">
<g clip-path="url(#clip0_9_2)">
<mask id="mask0_9_2" style="mask-type:luminance" maskUnits="userSpaceOnUse" x="0" y="0" width="195" height="416">
<path d="M195 0H0V416H195V0Z" fill="white"/>
</mask>
<g mask="url(#mask0_9_2)">
<mask id="mask1_9_2" style="mask-type:luminance" maskUnits="userSpaceOnUse" x="-1" y="-85" width="197" height="659">
<path d="M-0.129883 -84.5H195.39V573.82H-0.129883V-84.5Z" fill="white"/>
</mask>
<g mask="url(#mask1_9_2)">
<path d="M170.004 19.5022L167.332 16.0291C167.114 15.755 166.921 15.4391 166.753 15.0819C166.435 14.4227 166.318 13.8051 166.401 13.2284C166.525 12.3643 166.88 11.7125 167.466 11.272C168.052 10.8322 168.794 10.6772 169.691 10.8064C170.373 10.9047 171.035 11.3201 171.678 12.0522C172.501 11.5315 173.254 11.32 173.936 11.4183C174.808 11.5439 175.47 11.898 175.921 12.4816C176.373 13.0644 176.535 13.7939 176.409 14.6707C176.342 15.1343 176.148 15.5862 175.827 16.0251C175.536 16.4306 175.176 16.7819 174.746 17.0779L171.18 19.6714C170.992 19.8104 170.784 19.8636 170.557 19.8308C170.329 19.7979 170.145 19.6887 170.004 19.5022Z" fill="#00D8DE"/>
<path d="M42.003 98.9049L28.9723 80.8041C27.9051 79.3746 26.9745 77.736 26.1786 75.8921C24.6684 72.487 24.1716 69.3259 24.6872 66.406C25.4607 62.0302 27.3729 58.772 30.4247 56.626C33.4759 54.484 37.2739 53.8153 41.8177 54.6183C45.2695 55.2286 48.5721 57.4489 51.7232 61.2774C55.9956 58.7622 59.8593 57.808 63.3151 58.419C67.7309 59.1992 71.0392 61.1074 73.2404 64.1493C75.4423 67.1871 76.1514 70.9246 75.3672 75.3645C74.9516 77.7123 73.8905 79.9793 72.1851 82.1602C70.6404 84.1759 68.7526 85.9049 66.5186 87.341L47.9548 99.9564C46.9779 100.633 45.9127 100.87 44.7608 100.666C43.6089 100.462 42.6885 99.8765 42.003 98.9049Z" fill="#00D8DE"/>
</g>
<mask id="mask2_9_2" style="mask-type:luminance" maskUnits="userSpaceOnUse" x="-1" y="-85" width="197" height="659">
<path d="M-0.129883 -84.5H195.39V573.82H-0.129883V-84.5Z" fill="white"/>
</mask>
<g mask="url(#mask2_9_2)">
<path d="M88.0254 0.398901L87.3351 -0.966276C87.278 -1.0745 87.2324 -1.19543 87.1981 -1.32885C87.132 -1.57565 87.132 -1.79513 87.198 -1.98749C87.297 -2.27576 87.4612 -2.47619 87.6908 -2.58912C87.9204 -2.70179 88.1848 -2.70668 88.4842 -2.60391C88.7116 -2.52582 88.9117 -2.34023 89.0845 -2.04728C89.4008 -2.17224 89.6727 -2.19578 89.9004 -2.1176C90.1913 -2.01774 90.3952 -1.85323 90.5119 -1.62369C90.6288 -1.39441 90.6371 -1.13361 90.5367 -0.841112C90.4835 -0.686451 90.3875 -0.54413 90.2488 -0.414502C90.1226 -0.294358 89.9763 -0.197297 89.8097 -0.123762L88.4175 0.533488C88.3441 0.568921 88.2694 0.573666 88.1936 0.547577C88.1177 0.521489 88.0615 0.472028 88.0254 0.398901Z" fill="#00D8DE"/>
<path d="M156.27 96.8991L144.317 79.3636C143.337 77.9777 142.492 76.3964 141.78 74.623C140.427 71.3472 140.031 68.3283 140.593 65.5634C141.435 61.4201 143.334 58.3676 146.289 56.4008C149.244 54.4379 152.873 53.8945 157.175 54.7693C160.444 55.4341 163.531 57.6267 166.435 61.3452C170.56 59.0571 174.258 58.2438 177.531 58.9094C181.712 59.7593 184.812 61.6552 186.832 64.6024C188.852 67.5457 189.435 71.1182 188.581 75.3222C188.128 77.5452 187.064 79.6757 185.388 81.7086C183.87 83.5882 182.032 85.1866 179.872 86.4981L161.906 98.0446C160.96 98.6641 159.941 98.8638 158.85 98.6416C157.76 98.4193 156.898 97.84 156.27 96.8991Z" fill="#00D8DE"/>
<path d="M42.0512 188.814L18.4005 168.156C16.4805 166.537 14.681 164.587 13.0005 162.313C9.8419 158.126 8.1508 153.95 7.92509 149.782C7.58784 143.534 9.16906 138.456 12.6683 134.538C16.1679 130.626 21.1622 128.496 27.6494 128.146C32.5775 127.88 37.8156 129.869 43.3595 134.112C48.4144 129.299 53.4076 126.756 58.3415 126.49C64.6459 126.149 69.792 127.709 73.7821 131.177C77.7719 134.639 79.9382 139.537 80.2812 145.876C80.4613 149.228 79.7306 152.676 78.0887 156.211C76.6146 159.469 74.5783 162.442 71.9736 165.125L50.5484 188.354C49.4249 189.594 48.04 190.26 46.3953 190.348C44.7507 190.436 43.3015 189.927 42.0512 188.814Z" fill="#00D8DE"/>
</g>
<mask id="mask3_9_2" style="mask-type:luminance" maskUnits="userSpaceOnUse" x="-1" y="-85" width="197" height="659">
<path d="M-0.129883 -84.5H195.39V573.82H-0.129883V-84.5Z" fill="white"/>
</mask>
<g mask="url(#mask3_9_2)">
<path d="M76.3284 120.791L53.5961 103.709C51.7544 102.375 49.9997 100.734 48.3308 98.7922C45.1998 95.2215 43.3947 91.5631 42.9135 87.8136C42.1932 82.1945 43.2832 77.503 46.1824 73.7323C49.0824 69.9668 53.4508 67.7107 59.2857 66.9626C63.7184 66.3946 68.5809 67.8427 73.8697 71.3055C78.1142 66.622 82.4541 63.9935 86.8919 63.4248C92.5624 62.6975 97.3133 63.7636 101.147 66.6298C104.981 69.4908 107.263 73.7703 107.995 79.4715C108.38 82.4867 107.95 85.6486 106.702 88.9505C105.588 91.9902 103.947 94.8112 101.773 97.4074L83.9712 119.81C83.0391 121.004 81.8328 121.698 80.3534 121.887C78.8741 122.075 77.5316 121.713 76.3284 120.791Z" fill="#00D8DE"/>
<path d="M146.125 223.815L121.988 204.456C120.031 202.941 118.179 201.096 116.43 198.927C113.148 194.936 111.31 190.895 110.916 186.8C110.325 180.664 111.672 175.599 114.955 171.597C118.238 167.602 123.067 165.298 129.439 164.685C134.28 164.219 139.519 165.961 145.152 169.909C149.929 164.961 154.74 162.252 159.586 161.786C165.778 161.19 170.909 162.512 174.98 165.761C179.051 169.005 181.387 173.738 181.986 179.964C182.302 183.256 181.725 186.681 180.255 190.229C178.939 193.497 177.057 196.509 174.604 199.258L154.471 223.011C153.417 224.278 152.081 224.991 150.465 225.146C148.85 225.3 147.402 224.859 146.125 223.815Z" fill="#00D8DE"/>
<path d="M99.9437 303.818L73.974 298.804C71.8902 298.439 69.7541 297.782 67.5672 296.839C63.4937 295.13 60.4932 292.807 58.5624 289.868C55.6695 285.463 54.6683 281.097 55.5553 276.762C56.4449 272.431 59.1776 268.764 63.7512 265.76C67.2259 263.478 71.8818 262.707 77.7153 263.446C79.355 257.8 81.9121 253.833 85.3908 251.549C89.8354 248.629 94.2422 247.584 98.6163 248.417C102.988 249.247 106.64 251.894 109.576 256.363C111.128 258.727 112.057 261.546 112.36 264.815C112.667 267.811 112.445 270.838 111.686 273.895L105.934 299.883C105.642 301.261 104.916 302.333 103.756 303.094C102.596 303.855 101.326 304.099 99.9437 303.818Z" fill="#00D8DE"/>
</g>
<mask id="mask4_9_2" style="mask-type:luminance" maskUnits="userSpaceOnUse" x="-1" y="-85" width="197" height="659">
<path d="M-0.129883 -84.5H195.39V573.82H-0.129883V-84.5Z" fill="white"/>
</mask>
<g mask="url(#mask4_9_2)">
<path d="M107.642 247.154L81.4141 233.057C79.297 231.966 77.2216 230.545 75.1876 228.798C71.3831 225.595 68.9373 222.093 67.8477 218.287C66.2156 212.584 66.6038 207.555 69.0103 203.194C71.4183 198.839 75.5846 195.814 81.5069 194.119C86.0061 192.832 91.2683 193.564 97.2896 196.314C100.945 190.796 105.023 187.39 109.527 186.101C115.283 184.454 120.369 184.808 124.79 187.17C129.21 189.527 132.248 193.598 133.904 199.384C134.779 202.445 134.833 205.786 134.062 209.401C133.388 212.723 132.134 215.903 130.294 218.933L115.399 244.933C114.622 246.316 113.483 247.224 111.981 247.653C110.48 248.082 109.033 247.918 107.642 247.154Z" fill="#00D8DE"/>
<path d="M167.336 350.556L147.236 338.916C145.613 338.013 144.03 336.853 142.487 335.441C139.6 332.85 137.78 330.059 137.024 327.065C135.893 322.577 136.32 318.666 138.304 315.326C140.289 311.989 143.613 309.734 148.272 308.559C151.812 307.667 155.896 308.368 160.523 310.661C163.509 306.449 166.773 303.895 170.317 303.002C174.845 301.859 178.802 302.261 182.191 304.213C185.578 306.16 187.846 309.408 188.995 313.961C189.601 316.369 189.56 318.975 188.87 321.774C188.262 324.348 187.206 326.796 185.696 329.113L173.439 349.016C172.8 350.075 171.889 350.755 170.708 351.053C169.526 351.35 168.402 351.186 167.336 350.556Z" fill="#00D8DE"/>
<path d="M134.5 410.755L132.43 407.246C132.259 406.968 132.117 406.655 132.003 406.306C131.785 405.662 131.747 405.078 131.889 404.556C132.102 403.773 132.504 403.212 133.095 402.872C133.686 402.533 134.388 402.474 135.201 402.696C135.819 402.864 136.383 403.323 136.892 404.071C137.711 403.685 138.43 403.575 139.048 403.744C139.839 403.959 140.409 404.361 140.759 404.951C141.109 405.54 141.176 406.232 140.959 407.026C140.845 407.447 140.614 407.841 140.268 408.21C139.953 408.551 139.581 408.834 139.151 409.058L135.565 411.045C135.376 411.152 135.178 411.177 134.972 411.121C134.766 411.065 134.608 410.943 134.5 410.755Z" fill="#00D8DE"/>
</g>
</g>
</g>
<defs>
<clipPath id="clip0_9_2">
<rect width="195" height="416" fill="white"/>
</clipPath>
</defs>
</svg>
